# xmcd
#
# Track frame offsets:
#	150
#	16992
#	33832
#	60942
#	84540
#	106454
#	128815
#	149849
#	180005
#	207093
#	226479
#	252674
#	272997
#	293638
#	310562
#
# Disc length: 4446
#
# Revision: 3
# Processed by: cddbd v1.5.1PL0 Copyright (c) Steve Scherf et al.
# Submitted via: CDex 1.51
# Normalized: r2:TDELIM( - )
#
DISCID=cc115c0f
DTITLE=Various Artist - Chilled Jazz - CD 1
DYEAR=2002
DGENRE=Jazz
TTITLE0=Royksopp - So Easy
TTITLE1=Zero7 - In The Waiting Line
TTITLE2=Nina Simone - Feelin' Good
TTITLE3=Randy Crawford - Cajun Moon
TTITLE4=Herbie Hancock feat. Chaka Khan - The Essence
TTITLE5=Nuyorican Soul feat. Jocelyn Brown - I Am The Black Gold Of The Sun
TTITLE6=Rockers Hi-Fi Meets Ella Fitzgerald - Sunshine Of Your Live
TTITLE7=Courtnet Pie - Don't X'plain
TTITLE8=Mark De Clive-Lowe - Cosmic Echoes
TTITLE9=Style Council feat. Tracey Thorn - The Paris Match
TTITLE10=Rae and Christian feat. Kate Rogers - Not Just Anybody
TTITLE11=Eivind Aarset - Superstrings
TTITLE12=Till Bronner - She Was Good To Me
TTITLE13=Riton - Let Me Be Mine
TTITLE14=Silje Nergaard - Be Still My Heart
EXTD=YEAR: 2002
EXTT0=
EXTT1=
EXTT2=
EXTT3=
EXTT4=
EXTT5=
EXTT6=
EXTT7=
EXTT8=
EXTT9=
EXTT10=
EXTT11=
EXTT12=
EXTT13=
EXTT14=
PLAYORDER=
